<svg width="1280" height="720" viewBox="0 0 1280 720" fill="none" xmlns="http://www.w3.org/2000/svg"><path fill="#EEE" d="M0 0h1280v720H0z"/><path d="m814.591 357.106-57.804-57.658 41.794-41.688-.034-.039.034-.034h-.072L684.491 143.958C673.827 133.321 659.845 128 645.868 128c-13.982 0-27.959 5.321-38.627 15.958L464.999 285.843c-21.332 21.278-21.332 55.776 0 77.054l72.223 72.041-41.794 41.685 99.668 99.415C605.764 586.679 619.742 592 633.723 592c13.978 0 27.959-5.321 38.623-15.962l142.245-141.881c21.333-21.271 21.333-55.776 0-77.051Zm-330.614-13.142c-10.829-10.802-10.829-28.386 0-39.188l142.245-141.884c5.246-5.233 12.225-8.117 19.646-8.117 7.42 0 14.395 2.884 19.645 8.117l95.036 94.795h-45.641l.008.008L556.2 416.004l-72.223-72.04Zm311.633 71.263L653.365 557.116c-5.246 5.229-12.222 8.113-19.642 8.113-7.424 0-14.399-2.884-19.645-8.113l-80.69-80.49 181.531-181.068 80.691 80.486c10.833 10.798 10.833 28.385 0 39.183Z" fill="#fff"/></svg>